<svg xmlns="http://www.w3.org/2000/svg" width="512" height="512" viewBox="0 0 512 512" role="img" aria-labelledby="title">
  <title id="title">Revolut circle payment token</title>
  <!-- V2.5 final-tuning generation: final optical tuning; transparent outer canvas. -->
  <circle cx="256" cy="256" r="224" fill="#FFFFFF"/>
  <g transform="translate(13.5 -5.5) translate(256 256) scale(0.82) translate(-256 -256)"><svg x="104.96000000000001" y="104.96000000000001" width="302.08" height="302.08" viewBox="0 0 24 24" preserveAspectRatio="xMidYMid meet" fill="#191C1F">
      <path d="M20.9133 6.9566C20.9133 3.1208 17.7898 0 13.9503 0H2.424v3.8605h10.9782c1.7376 0 3.177 1.3651 3.2087 3.043.016.84-.2994 1.633-.8878 2.2324-.5886.5998-1.375.9303-2.2144.9303H9.2322a.2756.2756 0 0 0-.2755.2752v3.431c0 .0585.018.1142.052.1612L16.2646 24h5.3114l-7.2727-10.094c3.6625-.1838 6.61-3.2612 6.61-6.9494zM6.8943 5.9229H2.424V24h4.4704z"/>
    </svg></g>
  <g aria-hidden="true"><path d="M 256.000 32.000 L 264.794 32.173" fill="none" stroke="#FEFEFE" stroke-width="12" stroke-linecap="round"/><path d="M 263.329 32.120 L 272.113 32.580" fill="none" stroke="#FCFDFD" stroke-width="12" stroke-linecap="round"/><path d="M 270.650 32.480 L 279.414 33.227" fill="none" stroke="#FBFBFB" stroke-width="12" stroke-linecap="round"/><path d="M 277.956 33.079 L 286.691 34.112" fill="none" stroke="#F9F9FA" stroke-width="12" stroke-linecap="round"/><path d="M 285.238 33.916 L 293.934 35.235" fill="none" stroke="#F7F8F8" stroke-width="12" stroke-linecap="round"/><path d="M 292.489 34.992 L 301.137 36.595" fill="none" stroke="#F6F6F7" stroke-width="12" stroke-linecap="round"/><path d="M 299.700 36.304 L 308.292 38.189" fill="none" stroke="#F4F5F6" stroke-width="12" stroke-linecap="round"/><path d="M 306.865 37.852 L 315.390 40.017" fill="none" stroke="#F2F3F4" stroke-width="12" stroke-linecap="round"/><path d="M 313.975 39.633 L 322.425 42.076" fill="none" stroke="#F1F2F3" stroke-width="12" stroke-linecap="round"/><path d="M 321.024 41.645 L 329.389 44.363" fill="none" stroke="#EFF0F1" stroke-width="12" stroke-linecap="round"/><path d="M 328.002 43.888 L 336.274 46.878" fill="none" stroke="#EEEEF0" stroke-width="12" stroke-linecap="round"/><path d="M 334.904 46.357 L 343.074 49.616" fill="none" stroke="#ECEDEE" stroke-width="12" stroke-linecap="round"/><path d="M 341.721 49.051 L 349.780 52.576" fill="none" stroke="#EAEBED" stroke-width="12" stroke-linecap="round"/><path d="M 348.446 51.967 L 356.385 55.753" fill="none" stroke="#E9EAEB" stroke-width="12" stroke-linecap="round"/><path d="M 355.073 55.101 L 362.884 59.145" fill="none" stroke="#E7E8EA" stroke-width="12" stroke-linecap="round"/><path d="M 361.593 58.450 L 369.267 62.747" fill="none" stroke="#E5E7E9" stroke-width="12" stroke-linecap="round"/><path d="M 368.000 62.010 L 375.530 66.557" fill="none" stroke="#E4E5E7" stroke-width="12" stroke-linecap="round"/><path d="M 374.287 65.779 L 381.664 70.569" fill="none" stroke="#E2E3E6" stroke-width="12" stroke-linecap="round"/><path d="M 380.448 69.751 L 387.664 74.780" fill="none" stroke="#E0E2E4" stroke-width="12" stroke-linecap="round"/><path d="M 386.475 73.922 L 393.523 79.185" fill="none" stroke="#DFE0E3" stroke-width="12" stroke-linecap="round"/><path d="M 392.363 78.289 L 399.234 83.779" fill="none" stroke="#DDDFE1" stroke-width="12" stroke-linecap="round"/><path d="M 398.104 82.846 L 404.793 88.558" fill="none" stroke="#DBDDE0" stroke-width="12" stroke-linecap="round"/><path d="M 403.693 87.588 L 410.191 93.516" fill="none" stroke="#DADCDF" stroke-width="12" stroke-linecap="round"/><path d="M 409.125 92.510 L 415.425 98.648" fill="none" stroke="#D8DADD" stroke-width="12" stroke-linecap="round"/><path d="M 414.392 97.608 L 420.488 103.949" fill="none" stroke="#D7D9DC" stroke-width="12" stroke-linecap="round"/><path d="M 419.490 102.875 L 425.375 109.412" fill="none" stroke="#D5D7DA" stroke-width="12" stroke-linecap="round"/><path d="M 424.412 108.307 L 430.081 115.032" fill="none" stroke="#D3D5D9" stroke-width="12" stroke-linecap="round"/><path d="M 429.154 113.896 L 434.600 120.803" fill="none" stroke="#D2D4D7" stroke-width="12" stroke-linecap="round"/><path d="M 433.711 119.637 L 438.928 126.719" fill="none" stroke="#D0D2D6" stroke-width="12" stroke-linecap="round"/><path d="M 438.078 125.525 L 443.060 132.774" fill="none" stroke="#CED1D4" stroke-width="12" stroke-linecap="round"/><path d="M 442.249 131.552 L 446.991 138.960" fill="none" stroke="#CDCFD3" stroke-width="12" stroke-linecap="round"/><path d="M 446.221 137.713 L 450.719 145.272" fill="none" stroke="#CBCED2" stroke-width="12" stroke-linecap="round"/><path d="M 449.990 144.000 L 454.237 151.702" fill="none" stroke="#C9CCD0" stroke-width="12" stroke-linecap="round"/><path d="M 453.550 150.407 L 457.544 158.244" fill="none" stroke="#C8CBCF" stroke-width="12" stroke-linecap="round"/><path d="M 456.899 156.927 L 460.634 164.891" fill="none" stroke="#C6C9CD" stroke-width="12" stroke-linecap="round"/><path d="M 460.033 163.554 L 463.506 171.635" fill="none" stroke="#C4C7CC" stroke-width="12" stroke-linecap="round"/><path d="M 462.949 170.279 L 466.155 178.470" fill="none" stroke="#C3C6CA" stroke-width="12" stroke-linecap="round"/><path d="M 465.643 177.096 L 468.579 185.387" fill="none" stroke="#C1C4C9" stroke-width="12" stroke-linecap="round"/><path d="M 468.112 183.998 L 470.776 192.381" fill="none" stroke="#BFC3C8" stroke-width="12" stroke-linecap="round"/><path d="M 470.355 190.976 L 472.742 199.442" fill="none" stroke="#BEC1C6" stroke-width="12" stroke-linecap="round"/><path d="M 472.367 198.025 L 474.477 206.564" fill="none" stroke="#BCC0C5" stroke-width="12" stroke-linecap="round"/><path d="M 474.148 205.135 L 475.977 213.739" fill="none" stroke="#BBBEC3" stroke-width="12" stroke-linecap="round"/><path d="M 475.696 212.300 L 477.242 220.959" fill="none" stroke="#B9BCC2" stroke-width="12" stroke-linecap="round"/><path d="M 477.008 219.511 L 478.270 228.216" fill="none" stroke="#B7BBC0" stroke-width="12" stroke-linecap="round"/><path d="M 478.084 226.762 L 479.060 235.504" fill="none" stroke="#B6B9BF" stroke-width="12" stroke-linecap="round"/><path d="M 478.921 234.044 L 479.611 242.813" fill="none" stroke="#B4B8BD" stroke-width="12" stroke-linecap="round"/><path d="M 479.520 241.350 L 479.923 250.136" fill="none" stroke="#B2B6BC" stroke-width="12" stroke-linecap="round"/><path d="M 479.880 248.671 L 479.995 257.466" fill="none" stroke="#B1B5BB" stroke-width="12" stroke-linecap="round"/><path d="M 480.000 256.000 L 479.827 264.794" fill="none" stroke="#AEB2B8" stroke-width="12" stroke-linecap="round"/><path d="M 479.880 263.329 L 479.420 272.113" fill="none" stroke="#ABAFB5" stroke-width="12" stroke-linecap="round"/><path d="M 479.520 270.650 L 478.773 279.414" fill="none" stroke="#A8ACB2" stroke-width="12" stroke-linecap="round"/><path d="M 478.921 277.956 L 477.888 286.691" fill="none" stroke="#A5A9AE" stroke-width="12" stroke-linecap="round"/><path d="M 478.084 285.238 L 476.765 293.934" fill="none" stroke="#A2A5AB" stroke-width="12" stroke-linecap="round"/><path d="M 477.008 292.489 L 475.405 301.137" fill="none" stroke="#9EA2A8" stroke-width="12" stroke-linecap="round"/><path d="M 475.696 299.700 L 473.811 308.292" fill="none" stroke="#9B9FA5" stroke-width="12" stroke-linecap="round"/><path d="M 474.148 306.865 L 471.983 315.390" fill="none" stroke="#989CA1" stroke-width="12" stroke-linecap="round"/><path d="M 472.367 313.975 L 469.924 322.425" fill="none" stroke="#95999E" stroke-width="12" stroke-linecap="round"/><path d="M 470.355 321.024 L 467.637 329.389" fill="none" stroke="#92969B" stroke-width="12" stroke-linecap="round"/><path d="M 468.112 328.002 L 465.122 336.274" fill="none" stroke="#8F9298" stroke-width="12" stroke-linecap="round"/><path d="M 465.643 334.904 L 462.384 343.074" fill="none" stroke="#8C8F95" stroke-width="12" stroke-linecap="round"/><path d="M 462.949 341.721 L 459.424 349.780" fill="none" stroke="#888C91" stroke-width="12" stroke-linecap="round"/><path d="M 460.033 348.446 L 456.247 356.385" fill="none" stroke="#85898E" stroke-width="12" stroke-linecap="round"/><path d="M 456.899 355.073 L 452.855 362.884" fill="none" stroke="#82868B" stroke-width="12" stroke-linecap="round"/><path d="M 453.550 361.593 L 449.253 369.267" fill="none" stroke="#7F8388" stroke-width="12" stroke-linecap="round"/><path d="M 449.990 368.000 L 445.443 375.530" fill="none" stroke="#7C7F84" stroke-width="12" stroke-linecap="round"/><path d="M 446.221 374.287 L 441.431 381.664" fill="none" stroke="#797C81" stroke-width="12" stroke-linecap="round"/><path d="M 442.249 380.448 L 437.220 387.664" fill="none" stroke="#75797E" stroke-width="12" stroke-linecap="round"/><path d="M 438.078 386.475 L 432.815 393.523" fill="none" stroke="#72767B" stroke-width="12" stroke-linecap="round"/><path d="M 433.711 392.363 L 428.221 399.234" fill="none" stroke="#6F7377" stroke-width="12" stroke-linecap="round"/><path d="M 429.154 398.104 L 423.442 404.793" fill="none" stroke="#6C7074" stroke-width="12" stroke-linecap="round"/><path d="M 424.412 403.693 L 418.484 410.191" fill="none" stroke="#696C71" stroke-width="12" stroke-linecap="round"/><path d="M 419.490 409.125 L 413.352 415.425" fill="none" stroke="#66696E" stroke-width="12" stroke-linecap="round"/><path d="M 414.392 414.392 L 408.051 420.488" fill="none" stroke="#63666B" stroke-width="12" stroke-linecap="round"/><path d="M 409.125 419.490 L 402.588 425.375" fill="none" stroke="#5F6367" stroke-width="12" stroke-linecap="round"/><path d="M 403.693 424.412 L 396.968 430.081" fill="none" stroke="#5C6064" stroke-width="12" stroke-linecap="round"/><path d="M 398.104 429.154 L 391.197 434.600" fill="none" stroke="#595D61" stroke-width="12" stroke-linecap="round"/><path d="M 392.363 433.711 L 385.281 438.928" fill="none" stroke="#56595E" stroke-width="12" stroke-linecap="round"/><path d="M 386.475 438.078 L 379.226 443.060" fill="none" stroke="#53565A" stroke-width="12" stroke-linecap="round"/><path d="M 380.448 442.249 L 373.040 446.991" fill="none" stroke="#505357" stroke-width="12" stroke-linecap="round"/><path d="M 374.287 446.221 L 366.728 450.719" fill="none" stroke="#4D5054" stroke-width="12" stroke-linecap="round"/><path d="M 368.000 449.990 L 360.298 454.237" fill="none" stroke="#494D51" stroke-width="12" stroke-linecap="round"/><path d="M 361.593 453.550 L 353.756 457.544" fill="none" stroke="#464A4D" stroke-width="12" stroke-linecap="round"/><path d="M 355.073 456.899 L 347.109 460.634" fill="none" stroke="#43464A" stroke-width="12" stroke-linecap="round"/><path d="M 348.446 460.033 L 340.365 463.506" fill="none" stroke="#404347" stroke-width="12" stroke-linecap="round"/><path d="M 341.721 462.949 L 333.530 466.155" fill="none" stroke="#3D4044" stroke-width="12" stroke-linecap="round"/><path d="M 334.904 465.643 L 326.613 468.579" fill="none" stroke="#3A3D41" stroke-width="12" stroke-linecap="round"/><path d="M 328.002 468.112 L 319.619 470.776" fill="none" stroke="#373A3D" stroke-width="12" stroke-linecap="round"/><path d="M 321.024 470.355 L 312.558 472.742" fill="none" stroke="#33373A" stroke-width="12" stroke-linecap="round"/><path d="M 313.975 472.367 L 305.436 474.477" fill="none" stroke="#303337" stroke-width="12" stroke-linecap="round"/><path d="M 306.865 474.148 L 298.261 475.977" fill="none" stroke="#2D3034" stroke-width="12" stroke-linecap="round"/><path d="M 299.700 475.696 L 291.041 477.242" fill="none" stroke="#2A2D30" stroke-width="12" stroke-linecap="round"/><path d="M 292.489 477.008 L 283.784 478.270" fill="none" stroke="#272A2D" stroke-width="12" stroke-linecap="round"/><path d="M 285.238 478.084 L 276.496 479.060" fill="none" stroke="#24272A" stroke-width="12" stroke-linecap="round"/><path d="M 277.956 478.921 L 269.187 479.611" fill="none" stroke="#212427" stroke-width="12" stroke-linecap="round"/><path d="M 270.650 479.520 L 261.864 479.923" fill="none" stroke="#1D2024" stroke-width="12" stroke-linecap="round"/><path d="M 263.329 479.880 L 254.534 479.995" fill="none" stroke="#1A1D20" stroke-width="12" stroke-linecap="round"/><path d="M 256.000 480.000 L 247.206 479.827" fill="none" stroke="#1A1D20" stroke-width="12" stroke-linecap="round"/><path d="M 248.671 479.880 L 239.887 479.420" fill="none" stroke="#1B1E21" stroke-width="12" stroke-linecap="round"/><path d="M 241.350 479.520 L 232.586 478.773" fill="none" stroke="#1C1F23" stroke-width="12" stroke-linecap="round"/><path d="M 234.044 478.921 L 225.309 477.888" fill="none" stroke="#1E2124" stroke-width="12" stroke-linecap="round"/><path d="M 226.762 478.084 L 218.066 476.765" fill="none" stroke="#1F2226" stroke-width="12" stroke-linecap="round"/><path d="M 219.511 477.008 L 210.863 475.405" fill="none" stroke="#202327" stroke-width="12" stroke-linecap="round"/><path d="M 212.300 475.696 L 203.708 473.811" fill="none" stroke="#212528" stroke-width="12" stroke-linecap="round"/><path d="M 205.135 474.148 L 196.610 471.983" fill="none" stroke="#23262A" stroke-width="12" stroke-linecap="round"/><path d="M 198.025 472.367 L 189.575 469.924" fill="none" stroke="#24272B" stroke-width="12" stroke-linecap="round"/><path d="M 190.976 470.355 L 182.611 467.637" fill="none" stroke="#25292D" stroke-width="12" stroke-linecap="round"/><path d="M 183.998 468.112 L 175.726 465.122" fill="none" stroke="#262A2E" stroke-width="12" stroke-linecap="round"/><path d="M 177.096 465.643 L 168.926 462.384" fill="none" stroke="#282B2F" stroke-width="12" stroke-linecap="round"/><path d="M 170.279 462.949 L 162.220 459.424" fill="none" stroke="#292D31" stroke-width="12" stroke-linecap="round"/><path d="M 163.554 460.033 L 155.615 456.247" fill="none" stroke="#2A2E32" stroke-width="12" stroke-linecap="round"/><path d="M 156.927 456.899 L 149.116 452.855" fill="none" stroke="#2C2F34" stroke-width="12" stroke-linecap="round"/><path d="M 150.407 453.550 L 142.733 449.253" fill="none" stroke="#2D3135" stroke-width="12" stroke-linecap="round"/><path d="M 144.000 449.990 L 136.470 445.443" fill="none" stroke="#2E3237" stroke-width="12" stroke-linecap="round"/><path d="M 137.713 446.221 L 130.336 441.431" fill="none" stroke="#2F3338" stroke-width="12" stroke-linecap="round"/><path d="M 131.552 442.249 L 124.336 437.220" fill="none" stroke="#313539" stroke-width="12" stroke-linecap="round"/><path d="M 125.525 438.078 L 118.477 432.815" fill="none" stroke="#32363B" stroke-width="12" stroke-linecap="round"/><path d="M 119.637 433.711 L 112.766 428.221" fill="none" stroke="#33373C" stroke-width="12" stroke-linecap="round"/><path d="M 113.896 429.154 L 107.207 423.442" fill="none" stroke="#34393E" stroke-width="12" stroke-linecap="round"/><path d="M 108.307 424.412 L 101.809 418.484" fill="none" stroke="#363A3F" stroke-width="12" stroke-linecap="round"/><path d="M 102.875 419.490 L 96.575 413.352" fill="none" stroke="#373B40" stroke-width="12" stroke-linecap="round"/><path d="M 97.608 414.392 L 91.512 408.051" fill="none" stroke="#383D42" stroke-width="12" stroke-linecap="round"/><path d="M 92.510 409.125 L 86.625 402.588" fill="none" stroke="#3A3E43" stroke-width="12" stroke-linecap="round"/><path d="M 87.588 403.693 L 81.919 396.968" fill="none" stroke="#3B3F45" stroke-width="12" stroke-linecap="round"/><path d="M 82.846 398.104 L 77.400 391.197" fill="none" stroke="#3C4146" stroke-width="12" stroke-linecap="round"/><path d="M 78.289 392.363 L 73.072 385.281" fill="none" stroke="#3D4248" stroke-width="12" stroke-linecap="round"/><path d="M 73.922 386.475 L 68.940 379.226" fill="none" stroke="#3F4349" stroke-width="12" stroke-linecap="round"/><path d="M 69.751 380.448 L 65.009 373.040" fill="none" stroke="#40454A" stroke-width="12" stroke-linecap="round"/><path d="M 65.779 374.287 L 61.281 366.728" fill="none" stroke="#41464C" stroke-width="12" stroke-linecap="round"/><path d="M 62.010 368.000 L 57.763 360.298" fill="none" stroke="#42474D" stroke-width="12" stroke-linecap="round"/><path d="M 58.450 361.593 L 54.456 353.756" fill="none" stroke="#44494F" stroke-width="12" stroke-linecap="round"/><path d="M 55.101 355.073 L 51.366 347.109" fill="none" stroke="#454A50" stroke-width="12" stroke-linecap="round"/><path d="M 51.967 348.446 L 48.494 340.365" fill="none" stroke="#464B51" stroke-width="12" stroke-linecap="round"/><path d="M 49.051 341.721 L 45.845 333.530" fill="none" stroke="#484D53" stroke-width="12" stroke-linecap="round"/><path d="M 46.357 334.904 L 43.421 326.613" fill="none" stroke="#494E54" stroke-width="12" stroke-linecap="round"/><path d="M 43.888 328.002 L 41.224 319.619" fill="none" stroke="#4A4F56" stroke-width="12" stroke-linecap="round"/><path d="M 41.645 321.024 L 39.258 312.558" fill="none" stroke="#4B5157" stroke-width="12" stroke-linecap="round"/><path d="M 39.633 313.975 L 37.523 305.436" fill="none" stroke="#4D5259" stroke-width="12" stroke-linecap="round"/><path d="M 37.852 306.865 L 36.023 298.261" fill="none" stroke="#4E535A" stroke-width="12" stroke-linecap="round"/><path d="M 36.304 299.700 L 34.758 291.041" fill="none" stroke="#4F555B" stroke-width="12" stroke-linecap="round"/><path d="M 34.992 292.489 L 33.730 283.784" fill="none" stroke="#50565D" stroke-width="12" stroke-linecap="round"/><path d="M 33.916 285.238 L 32.940 276.496" fill="none" stroke="#52575E" stroke-width="12" stroke-linecap="round"/><path d="M 33.079 277.956 L 32.389 269.187" fill="none" stroke="#535960" stroke-width="12" stroke-linecap="round"/><path d="M 32.480 270.650 L 32.077 261.864" fill="none" stroke="#545A61" stroke-width="12" stroke-linecap="round"/><path d="M 32.120 263.329 L 32.005 254.534" fill="none" stroke="#555B62" stroke-width="12" stroke-linecap="round"/><path d="M 32.000 256.000 L 32.173 247.206" fill="none" stroke="#585E65" stroke-width="12" stroke-linecap="round"/><path d="M 32.120 248.671 L 32.580 239.887" fill="none" stroke="#5C6168" stroke-width="12" stroke-linecap="round"/><path d="M 32.480 241.350 L 33.227 232.586" fill="none" stroke="#5F656B" stroke-width="12" stroke-linecap="round"/><path d="M 33.079 234.044 L 34.112 225.309" fill="none" stroke="#63686F" stroke-width="12" stroke-linecap="round"/><path d="M 33.916 226.762 L 35.235 218.066" fill="none" stroke="#666C72" stroke-width="12" stroke-linecap="round"/><path d="M 34.992 219.511 L 36.595 210.863" fill="none" stroke="#6A6F75" stroke-width="12" stroke-linecap="round"/><path d="M 36.304 212.300 L 38.189 203.708" fill="none" stroke="#6D7278" stroke-width="12" stroke-linecap="round"/><path d="M 37.852 205.135 L 40.017 196.610" fill="none" stroke="#71767C" stroke-width="12" stroke-linecap="round"/><path d="M 39.633 198.025 L 42.076 189.575" fill="none" stroke="#74797F" stroke-width="12" stroke-linecap="round"/><path d="M 41.645 190.976 L 44.363 182.611" fill="none" stroke="#787D82" stroke-width="12" stroke-linecap="round"/><path d="M 43.888 183.998 L 46.878 175.726" fill="none" stroke="#7B8085" stroke-width="12" stroke-linecap="round"/><path d="M 46.357 177.096 L 49.616 168.926" fill="none" stroke="#7F8389" stroke-width="12" stroke-linecap="round"/><path d="M 49.051 170.279 L 52.576 162.220" fill="none" stroke="#82878C" stroke-width="12" stroke-linecap="round"/><path d="M 51.967 163.554 L 55.753 155.615" fill="none" stroke="#868A8F" stroke-width="12" stroke-linecap="round"/><path d="M 55.101 156.927 L 59.145 149.116" fill="none" stroke="#898E92" stroke-width="12" stroke-linecap="round"/><path d="M 58.450 150.407 L 62.747 142.733" fill="none" stroke="#8D9196" stroke-width="12" stroke-linecap="round"/><path d="M 62.010 144.000 L 66.557 136.470" fill="none" stroke="#909499" stroke-width="12" stroke-linecap="round"/><path d="M 65.779 137.713 L 70.569 130.336" fill="none" stroke="#94989C" stroke-width="12" stroke-linecap="round"/><path d="M 69.751 131.552 L 74.780 124.336" fill="none" stroke="#979B9F" stroke-width="12" stroke-linecap="round"/><path d="M 73.922 125.525 L 79.185 118.477" fill="none" stroke="#9B9FA3" stroke-width="12" stroke-linecap="round"/><path d="M 78.289 119.637 L 83.779 112.766" fill="none" stroke="#9FA2A6" stroke-width="12" stroke-linecap="round"/><path d="M 82.846 113.896 L 88.558 107.207" fill="none" stroke="#A2A5A9" stroke-width="12" stroke-linecap="round"/><path d="M 87.588 108.307 L 93.516 101.809" fill="none" stroke="#A6A9AC" stroke-width="12" stroke-linecap="round"/><path d="M 92.510 102.875 L 98.648 96.575" fill="none" stroke="#A9ACB0" stroke-width="12" stroke-linecap="round"/><path d="M 97.608 97.608 L 103.949 91.512" fill="none" stroke="#ADB0B3" stroke-width="12" stroke-linecap="round"/><path d="M 102.875 92.510 L 109.412 86.625" fill="none" stroke="#B0B3B6" stroke-width="12" stroke-linecap="round"/><path d="M 108.307 87.588 L 115.032 81.919" fill="none" stroke="#B4B6B9" stroke-width="12" stroke-linecap="round"/><path d="M 113.896 82.846 L 120.803 77.400" fill="none" stroke="#B7BABD" stroke-width="12" stroke-linecap="round"/><path d="M 119.637 78.289 L 126.719 73.072" fill="none" stroke="#BBBDC0" stroke-width="12" stroke-linecap="round"/><path d="M 125.525 73.922 L 132.774 68.940" fill="none" stroke="#BEC1C3" stroke-width="12" stroke-linecap="round"/><path d="M 131.552 69.751 L 138.960 65.009" fill="none" stroke="#C2C4C6" stroke-width="12" stroke-linecap="round"/><path d="M 137.713 65.779 L 145.272 61.281" fill="none" stroke="#C5C7CA" stroke-width="12" stroke-linecap="round"/><path d="M 144.000 62.010 L 151.702 57.763" fill="none" stroke="#C9CBCD" stroke-width="12" stroke-linecap="round"/><path d="M 150.407 58.450 L 158.244 54.456" fill="none" stroke="#CCCED0" stroke-width="12" stroke-linecap="round"/><path d="M 156.927 55.101 L 164.891 51.366" fill="none" stroke="#D0D1D3" stroke-width="12" stroke-linecap="round"/><path d="M 163.554 51.967 L 171.635 48.494" fill="none" stroke="#D3D5D7" stroke-width="12" stroke-linecap="round"/><path d="M 170.279 49.051 L 178.470 45.845" fill="none" stroke="#D7D8DA" stroke-width="12" stroke-linecap="round"/><path d="M 177.096 46.357 L 185.387 43.421" fill="none" stroke="#DADCDD" stroke-width="12" stroke-linecap="round"/><path d="M 183.998 43.888 L 192.381 41.224" fill="none" stroke="#DEDFE0" stroke-width="12" stroke-linecap="round"/><path d="M 190.976 41.645 L 199.442 39.258" fill="none" stroke="#E1E2E4" stroke-width="12" stroke-linecap="round"/><path d="M 198.025 39.633 L 206.564 37.523" fill="none" stroke="#E5E6E7" stroke-width="12" stroke-linecap="round"/><path d="M 205.135 37.852 L 213.739 36.023" fill="none" stroke="#E8E9EA" stroke-width="12" stroke-linecap="round"/><path d="M 212.300 36.304 L 220.959 34.758" fill="none" stroke="#ECEDED" stroke-width="12" stroke-linecap="round"/><path d="M 219.511 34.992 L 228.216 33.730" fill="none" stroke="#F0F0F1" stroke-width="12" stroke-linecap="round"/><path d="M 226.762 33.916 L 235.504 32.940" fill="none" stroke="#F3F3F4" stroke-width="12" stroke-linecap="round"/><path d="M 234.044 33.079 L 242.813 32.389" fill="none" stroke="#F7F7F7" stroke-width="12" stroke-linecap="round"/><path d="M 241.350 32.480 L 250.136 32.077" fill="none" stroke="#FAFAFA" stroke-width="12" stroke-linecap="round"/><path d="M 248.671 32.120 L 257.466 32.005" fill="none" stroke="#FEFEFE" stroke-width="12" stroke-linecap="round"/></g><circle cx="256" cy="256" r="217.25" fill="none" stroke="#FFFFFF" stroke-width="1.5" stroke-opacity=".14"/>
</svg>
