<svg xmlns="http://www.w3.org/2000/svg" fill="none" viewBox="-0.32 0.36 1146.79 400">
<g clip-path="url(#clip0_224_708)">
<path d="M653.896 95.002C653.896 73.9744 644.564 57.0653 625.82 44.231C607.119 31.3967 578.732 25.0013 540.664 25.0013C515.873 25.0013 491.604 27.8071 467.821 33.4995C444.081 39.1918 423.358 47.0803 405.702 57.1524C397.291 61.9738 391.904 66.3099 389.627 70.0738C387.524 73.8873 386.473 78.3977 386.473 83.6546C386.473 87.6423 387.393 91.0142 389.278 93.7266C391.381 96.2649 394.355 97.5402 398.125 97.5402C402.766 97.5402 408.415 95.5246 415.165 91.5368C429.884 82.6903 447.757 75.4613 468.779 69.7689C489.806 63.8961 511.574 60.9224 534.045 60.9224C558.88 60.9224 577.282 64.512 589.239 71.6539C601.246 78.6216 607.243 88.1711 607.243 100.346C607.243 110.026 603.741 118.568 596.817 125.927C589.893 133.069 580.3 138.631 568.125 142.619C556.118 146.607 542.674 148.84 527.737 149.232C521.037 149.45 516.389 151.465 513.851 155.235C511.356 159.049 510.087 163.951 510.087 170.085C510.087 174.291 510.921 177.314 512.626 179.199C514.293 181.128 517.223 182.179 521.429 182.353C539.961 183.013 553.101 186.472 560.852 192.78C568.871 199.088 572.859 206.884 572.859 216.128C572.859 229.361 565.891 240.31 552.049 248.939C538.381 257.344 516.831 261.555 487.393 261.555C481.084 261.555 472.854 261.12 462.775 260.286C465.096 234.835 468.997 208.115 474.428 180.17C479.902 152.007 485.383 129.71 490.858 113.323C492.127 109.51 492.737 106.138 492.737 103.208C492.737 96.0658 486.341 92.4762 473.507 92.4762C466.365 92.4762 460.586 93.5276 456.162 95.6303C451.739 97.7331 448.803 101.41 447.316 106.667C438.905 136.758 431.981 167.995 426.506 200.364C421.031 232.515 417.348 263.31 415.47 292.748C415.034 299.274 416.216 304.226 418.935 307.598C421.865 310.97 427.128 312.637 434.699 312.637C442.27 312.637 448.498 311.144 453.313 308.208C458.134 305.278 460.673 300.848 460.89 294.982C467.199 295.597 475.61 295.902 486.123 295.902C514.287 295.902 538.381 292.661 558.357 286.135C578.334 279.435 593.445 269.972 603.741 257.748C614.255 245.573 619.505 231.159 619.505 214.561C619.505 204.047 616.177 194.802 609.433 186.789C602.69 178.596 592.835 172.729 579.777 169.133C603.959 163.441 622.355 154.196 634.971 141.362C647.588 128.354 653.896 112.888 653.896 95.0206V95.002Z" fill="url(#paint0_linear_224_708)"/>
<path d="M1143.25 239.776C1141.76 237.237 1139.66 235.962 1136.94 235.962C1133.79 235.962 1130.94 237.542 1128.44 240.69C1121.08 250.153 1114.56 256.896 1108.87 260.884C1103.39 264.872 1096.38 266.887 1087.76 266.887C1075.75 266.887 1067.26 262.072 1062.22 252.386C1087.23 246.295 1104.88 238.065 1115.18 227.769C1125.69 217.255 1130.95 204.769 1130.95 190.23C1130.95 177.831 1127.27 168.064 1119.91 160.922C1112.55 153.563 1102.79 149.886 1090.61 149.886C1076.94 149.886 1064.64 153.563 1053.68 160.922C1042.95 168.282 1034.54 178.267 1028.45 190.883C1022.36 203.282 1019.29 216.726 1019.29 231.228C1019.29 235.695 1019.55 239.944 1020.08 243.975C1013.73 249.667 1006.89 254.227 999.671 257.73C987.671 263.64 975.801 266.576 964.018 266.576C953.286 266.576 945.224 264.691 939.749 260.884C934.274 257.12 931.556 252.255 931.556 246.382C931.556 237.144 937.864 227.899 950.481 218.611C963.097 209.149 978.955 200.346 998.098 192.153C1004.8 189.173 1009.75 185.844 1012.9 182.031C1016.06 178.261 1017.63 173.01 1017.63 166.26C1017.63 160.169 1016.49 155.659 1014.17 152.723C1012.06 149.743 1009.35 148.299 1005.97 148.299C1003.87 148.299 1001.25 148.691 998.091 149.569C995.155 150.402 993.139 150.925 992.088 151.143C986.215 152.81 982.19 153.637 980.087 153.637C973.997 153.637 966.419 153.332 957.392 152.717C948.546 152.057 942.455 151.665 939.083 151.447C922.921 149.961 909.999 149.214 900.319 149.214C896.114 149.214 892.742 151.23 890.197 155.217C887.92 159.031 886.739 163.411 886.739 168.487C886.739 173.309 887.92 177.508 890.197 181.104C892.736 184.432 896.332 186.012 900.929 185.832L952.658 184.563C931.848 194.417 915.86 204.757 904.736 215.445C896.68 223.196 891.547 231.738 889.32 241.113C883.628 247.596 878.85 252.585 874.999 256.137C869.35 261.176 864.485 263.715 860.498 263.715C858.003 263.715 855.9 262.75 854.189 260.865C852.74 258.987 851.999 256.442 851.999 253.288C851.999 243.826 854.407 227.004 859.228 202.828C862.383 186.224 863.956 175.716 863.956 171.287C863.956 163.927 858.83 160.25 848.54 160.25C843.682 160.25 839.078 160.686 834.655 161.519C833.603 156.922 832.247 153.768 830.536 152.057C829.087 150.172 826.026 149.208 821.379 149.208C806.877 149.208 793.122 153.849 780.07 163.093C767.236 172.158 756.946 184.252 749.188 199.363C741.393 214.3 737.493 230.158 737.493 246.98V247.813C733.946 251.403 730.749 254.252 727.899 256.442C721.373 261.301 713.84 263.715 705.205 263.715C699.73 263.715 695.307 261.917 691.935 258.371C688.607 254.557 686.155 248.379 684.706 239.751C708.446 207.382 727.284 174.659 741.169 141.674C755.011 108.646 761.979 79.6488 761.979 54.59C761.979 37.1582 759.043 23.7952 753.133 14.5505C747.484 5.08809 739.595 0.359985 729.473 0.359985C711.6 0.359985 696.14 12.1429 683.132 35.6651C670.298 59.2309 660.53 87.4004 653.78 120.205C647.254 153.015 644.013 182.23 644.013 207.898C644.013 233.567 648.436 256.349 657.239 273.165C666.31 289.987 680.065 298.392 698.592 298.392C712.042 298.392 723.999 294.802 734.506 287.66C738.32 285.116 742.04 282.316 745.636 279.249C746.731 280.997 747.913 282.621 749.182 284.195C756.94 293.657 767.36 298.385 780.369 298.385C797.017 298.385 810.772 289.539 821.721 271.883C824.657 280.076 828.95 286.602 834.642 291.461C840.509 296.059 846.948 298.379 853.872 298.379C862.899 298.379 872.268 294.702 881.948 287.343C886.459 283.927 890.838 280.114 895.087 275.952C895.436 276.524 895.784 277.047 896.182 277.575C901.875 284.935 909.981 290.802 920.495 295.225C931.008 299.43 943.401 301.533 957.685 301.533C975.994 301.533 992.38 297.856 1006.88 290.497C1015.82 286.03 1023.87 280.555 1031.01 274.073C1032.5 276.306 1034.17 278.409 1036.01 280.425C1047.13 292.382 1062.82 298.385 1083.01 298.385C1096.24 298.385 1107.58 295.847 1117.05 290.808C1126.73 285.769 1134.52 278.72 1140.39 269.693C1143.98 264.219 1145.78 257.693 1145.78 250.115C1145.78 245.735 1144.9 242.227 1143.24 239.732L1143.25 239.776ZM690.056 122.774C694.703 96.8877 700.047 75.2442 706.132 57.769C712.266 40.3372 717.697 31.6152 722.562 31.6152C728.428 31.6152 731.365 39.5845 731.365 55.5729C731.365 75.9846 726.985 98.5861 718.138 123.384C709.292 148.001 697.416 172.574 682.479 197.192C682.914 173.408 685.459 148.611 690.056 122.768V122.774ZM814.15 236.621C812.265 245.648 809.198 252.915 804.992 258.396C800.787 263.827 796.363 266.589 791.76 266.589C787.156 266.589 783.436 265.009 780.723 261.861C778.179 258.707 776.91 253.842 776.91 247.359C776.91 235.576 779.143 224.403 783.523 213.896C787.946 203.382 793.863 194.971 801.222 188.662C808.756 182.18 816.987 178.808 825.796 178.59L814.144 236.628L814.15 236.621ZM1057.48 227.159C1057.48 214.325 1060.12 203.376 1065.37 194.349C1070.8 185.328 1077.45 180.768 1085.21 180.768C1089.03 180.768 1091.96 182.037 1094.06 184.581C1096.38 186.902 1097.52 190.056 1097.52 194.044C1097.52 201.795 1093.93 208.632 1086.79 214.543C1079.65 220.409 1069.88 224.832 1057.49 227.769V227.153L1057.48 227.159Z" fill="url(#paint1_linear_224_708)"/>
<path d="M532.788 363.149H386.473V377.781H532.788V363.149Z" fill="white"/>
<path d="M597.531 399.04C597.036 397.473 596.129 395.329 595.47 393.762L593.82 389.969H573.863L571.224 395.412C570.564 396.979 570.152 397.886 569.987 399.04H554.07C556.214 395.329 558.441 391.288 560.833 386.34L582.357 340.817H586.81L609.242 386.34C611.551 391.123 614.272 395.659 616.334 399.04H597.531ZM588.542 377.598L583.594 365.805L578.811 377.598H588.542Z" fill="white"/>
<path d="M620.996 399.04C621.16 396.484 621.325 389.721 621.325 384.113V356.734C621.325 350.961 621.16 344.281 620.996 341.807H642.108C647.798 341.807 654.065 341.642 656.622 341.477V355.579C654.065 355.332 647.798 355.249 642.108 355.249H637.654V365.558H640.623C646.396 365.558 651.674 365.393 654.23 365.228V379H637.654V384.113C637.654 389.721 637.819 396.484 637.984 399.04H620.996Z" fill="white"/>
<path d="M661.344 399.04C661.509 396.484 661.674 389.721 661.674 384.113V356.734C661.674 350.961 661.509 344.281 661.344 341.807H682.456C688.146 341.807 694.414 341.642 696.97 341.477V355.579C694.414 355.332 688.146 355.249 682.456 355.249H678.003V365.558H680.972C686.744 365.558 692.022 365.393 694.579 365.228V379H678.003V384.113C678.003 389.721 678.168 396.484 678.333 399.04H661.344Z" fill="white"/>
<path d="M718.269 356.734V384.113C718.269 389.721 718.434 396.484 718.598 399.04H701.692C701.857 396.484 702.022 389.721 702.022 384.113V356.734C702.022 351.043 701.857 344.281 701.692 341.807H718.598C718.434 344.281 718.269 351.043 718.269 356.734Z" fill="white"/>
<path d="M739.935 356.734V385.268H747.027C752.8 385.268 759.315 385.185 761.954 385.021V399.37C759.315 399.205 752.8 399.04 747.027 399.04H723.276C723.441 394.422 723.606 387.824 723.606 384.113V356.734C723.606 350.961 723.441 344.281 723.276 341.807H740.265C740.1 344.281 739.935 350.961 739.935 356.734Z" fill="white"/>
<path d="M783.18 356.734V384.113C783.18 389.721 783.345 396.484 783.51 399.04H766.604C766.769 396.484 766.934 389.721 766.934 384.113V356.734C766.934 351.043 766.769 344.281 766.604 341.807H783.51C783.345 344.281 783.18 351.043 783.18 356.734Z" fill="white"/>
<path d="M831.649 399.04C831.154 397.473 830.247 395.329 829.587 393.762L827.938 389.969H807.98L805.341 395.412C804.682 396.979 804.269 397.886 804.104 399.04H788.188C790.332 395.329 792.559 391.288 794.95 386.34L816.475 340.817H820.928L843.359 386.34C845.669 391.123 848.39 395.659 850.452 399.04H831.649ZM822.66 377.598L817.712 365.805L812.928 377.598H822.66Z" fill="white"/>
<path d="M883.894 341.807C889.667 341.807 896.594 341.642 899.151 341.477V355.662C896.594 355.497 889.667 355.249 883.894 355.249H881.997C881.915 358.383 881.915 362.424 881.915 365.97V384.113C881.915 389.804 882.08 396.484 882.327 399.04H865.009C865.174 396.484 865.421 389.804 865.421 384.113V365.97C865.421 362.424 865.339 358.301 865.174 355.249H863.277C857.587 355.249 850.742 355.497 848.268 355.662V341.477C850.742 341.642 857.587 341.807 863.277 341.807H883.894Z" fill="white"/>
<path d="M923.258 355.249H918.805V363.001H922.186C927.876 363.001 934.061 362.836 936.618 362.672V376.856C934.061 376.609 927.876 376.444 922.186 376.444H918.805V385.515H923.918C929.691 385.515 935.958 385.35 938.432 385.185V399.37C935.958 399.205 929.691 399.04 923.918 399.04H902.146C902.311 394.422 902.476 387.824 902.476 384.113V356.651C902.476 350.879 902.311 344.281 902.146 341.807H923.258C928.948 341.807 935.216 341.477 937.772 341.312V355.579C935.216 355.332 928.948 355.249 923.258 355.249Z" fill="white"/>
<path d="M961.146 356.404C961.228 362.672 978.877 365.063 978.877 381.557C978.877 393.185 969.393 400.36 956.775 400.36C952.652 400.36 949.683 399.947 946.714 399.453C943.91 399.123 941.931 396.731 941.931 393.927V381.309C945.147 385.185 952.074 387.66 956.858 387.66C959.909 387.66 961.558 386.093 961.558 383.948C961.558 376.856 944.405 375.289 944.405 359.043C944.405 347.662 952.074 340.57 965.517 340.57C968.073 340.57 970.053 340.9 972.114 341.23C974.836 341.725 976.897 344.116 976.897 346.838V357.971C974.258 354.59 969.475 352.94 965.599 352.94C962.713 352.94 961.146 354.26 961.146 356.404Z" fill="white"/>
<path d="M1146.47 363.149H1000.16V377.781H1146.47V363.149Z" fill="white"/>
<path d="M116.852 177.899C99.9821 232.601 96.3762 291.267 105.868 347.702C122.575 353.636 140.559 356.877 159.301 356.877C201.509 356.877 239.884 340.486 268.427 313.732C245.117 305.874 222.778 293.743 203.314 280.251C165.302 253.901 135.539 215.325 116.852 177.899Z" fill="url(#paint2_linear_224_708)"/>
<path d="M47.9651 311.62C55.9825 226.816 81.2219 143.622 122.109 68.8788C163.012 143.062 233.462 208 313.855 237.289C317.158 224.497 318.917 211.084 318.917 197.259C318.917 109.105 247.454 37.6425 159.3 37.6426C71.1466 37.6426 -0.316278 109.105 -0.316271 197.259C-0.315755 242.106 18.1867 282.625 47.9651 311.62Z" fill="url(#paint3_linear_224_708)"/>
<path d="M300.225 156.8C300.225 156.8 281.042 83.2656 203.246 55.557C203.246 55.557 218.165 146.143 300.225 156.8Z" fill="url(#paint4_linear_224_708)"/>
</g>
<defs>
<linearGradient id="paint0_linear_224_708" x1="1145.56" y1="168.816" x2="386.473" y2="168.816" gradientUnits="userSpaceOnUse">
<stop stop-color="#C95106"/>
<stop offset="0.84" stop-color="#FF8A0E"/>
</linearGradient>
<linearGradient id="paint1_linear_224_708" x1="1145.79" y1="150.987" x2="386.712" y2="150.987" gradientUnits="userSpaceOnUse">
<stop stop-color="#C95106"/>
<stop offset="0.84" stop-color="#FF8A0E"/>
</linearGradient>
<linearGradient id="paint2_linear_224_708" x1="268.427" y1="267.388" x2="100.717" y2="267.388" gradientUnits="userSpaceOnUse">
<stop stop-color="#FC880E"/>
<stop offset="0.3343" stop-color="#ED770B"/>
<stop offset="1" stop-color="#D25B08"/>
</linearGradient>
<linearGradient id="paint3_linear_224_708" x1="387.375" y1="174.608" x2="-0.315853" y2="174.632" gradientUnits="userSpaceOnUse">
<stop stop-color="#D76008"/>
<stop offset="0.477" stop-color="#EA740B"/>
<stop offset="1" stop-color="#FF8B0F"/>
</linearGradient>
<linearGradient id="paint4_linear_224_708" x1="266.469" y1="95.8614" x2="232.58" y2="119.591" gradientUnits="userSpaceOnUse">
<stop stop-color="#FD890F" stop-opacity="0.25"/>
<stop offset="0.5497" stop-color="#FD890F" stop-opacity="0.5"/>
<stop offset="1" stop-color="#FC880E"/>
</linearGradient>
<clipPath id="clip0_224_708">
<rect width="1740" height="400" fill="white"/>
</clipPath>
</defs>
</svg>