<svg xmlns="http://www.w3.org/2000/svg" fill="none" viewBox="-0.5 0.36 1146.24 400">
<g clip-path="url(#clip0_224_746)">
<path d="M653.164 95.0019C653.164 73.9743 643.832 57.0652 625.087 44.2309C606.387 31.3966 577.999 25.0012 539.932 25.0012C515.141 25.0012 490.872 27.807 467.088 33.4993C443.348 39.1917 422.626 47.0802 404.97 57.1522C396.559 61.9736 391.171 66.3098 388.894 70.0736C386.792 73.8872 385.74 78.3976 385.74 83.6544C385.74 87.6422 386.661 91.0141 388.546 93.7265C390.649 96.2648 393.622 97.5401 397.393 97.5401C402.034 97.5401 407.682 95.5244 414.432 91.5367C429.152 82.6902 447.025 75.4612 468.046 69.7688C489.074 63.896 510.842 60.9223 533.313 60.9223C558.148 60.9223 576.55 64.5119 588.507 71.6538C600.514 78.6215 606.511 88.171 606.511 100.346C606.511 110.026 603.008 118.568 596.084 125.927C589.16 133.069 579.567 138.631 567.392 142.619C555.385 146.606 541.941 148.84 527.004 149.232C520.304 149.45 515.657 151.465 513.119 155.235C510.624 159.049 509.355 163.951 509.355 170.085C509.355 174.291 510.189 177.314 511.893 179.199C513.56 181.128 516.491 182.179 520.696 182.353C539.229 183.013 552.368 186.472 560.12 192.78C568.139 199.088 572.127 206.883 572.127 216.128C572.127 229.361 565.159 240.31 551.317 248.939C537.649 257.343 516.099 261.555 486.66 261.555C480.352 261.555 472.121 261.12 462.043 260.286C464.363 234.835 468.264 208.115 473.695 180.17C479.17 152.006 484.651 129.71 490.125 113.323C491.394 109.51 492.004 106.138 492.004 103.208C492.004 96.0657 485.609 92.4761 472.774 92.4761C465.633 92.4761 459.853 93.5274 455.43 95.6302C451.007 97.733 448.07 101.41 446.583 106.667C438.172 136.758 431.248 167.995 425.774 200.364C420.299 232.515 416.616 263.309 414.737 292.748C414.302 299.274 415.484 304.226 418.202 307.598C421.132 310.97 426.396 312.637 433.967 312.637C441.538 312.637 447.765 311.144 452.581 308.208C457.402 305.278 459.94 300.848 460.158 294.981C466.466 295.597 474.877 295.902 485.391 295.902C513.554 295.902 537.649 292.661 557.625 286.135C577.601 279.435 592.712 269.972 603.008 257.748C613.522 245.573 618.773 231.158 618.773 214.56C618.773 204.047 615.445 194.802 608.701 186.789C601.957 178.596 592.103 172.729 579.045 169.133C603.226 163.441 621.622 154.196 634.239 141.362C646.855 128.354 653.164 112.888 653.164 95.0205V95.0019Z" fill="white"/>
<path d="M1142.52 239.775C1141.03 237.237 1138.93 235.962 1136.21 235.962C1133.06 235.962 1130.21 237.542 1127.71 240.69C1120.35 250.152 1113.83 256.896 1108.13 260.884C1102.66 264.872 1095.65 266.887 1087.02 266.887C1075.02 266.887 1066.53 262.072 1061.49 252.386C1086.5 246.295 1104.15 238.065 1114.45 227.769C1124.96 217.255 1130.22 204.769 1130.22 190.23C1130.22 177.831 1126.54 168.064 1119.18 160.922C1111.82 153.562 1102.05 149.886 1089.88 149.886C1076.21 149.886 1063.91 153.562 1052.95 160.922C1042.22 168.282 1033.81 178.267 1027.72 190.883C1021.63 203.282 1018.56 216.726 1018.56 231.228C1018.56 235.694 1018.82 239.943 1019.35 243.975C1013 249.667 1006.16 254.227 998.939 257.73C986.938 263.64 975.068 266.576 963.285 266.576C952.554 266.576 944.491 264.691 939.017 260.884C933.542 257.12 930.823 252.255 930.823 246.382C930.823 237.144 937.132 227.899 949.748 218.611C962.365 209.149 978.223 200.346 997.365 192.152C1004.07 189.172 1009.02 185.844 1012.17 182.031C1015.33 178.261 1016.9 173.01 1016.9 166.26C1016.9 160.169 1015.76 155.659 1013.43 152.723C1011.33 149.743 1008.62 148.299 1005.24 148.299C1003.14 148.299 1000.51 148.691 997.359 149.568C994.422 150.402 992.407 150.925 991.355 151.142C985.483 152.81 981.458 153.637 979.355 153.637C973.264 153.637 965.687 153.332 956.66 152.716C947.813 152.057 941.723 151.665 938.351 151.447C922.188 149.96 909.267 149.214 899.587 149.214C895.381 149.214 892.009 151.23 889.465 155.217C887.188 159.031 886.006 163.411 886.006 168.487C886.006 173.308 887.188 177.508 889.465 181.104C892.003 184.432 895.599 186.012 900.197 185.832L951.926 184.563C931.116 194.417 915.127 204.757 904.004 215.444C895.947 223.196 890.815 231.738 888.588 241.113C882.895 247.596 878.118 252.585 874.267 256.137C868.618 261.176 863.753 263.715 859.765 263.715C857.27 263.715 855.168 262.75 853.457 260.865C852.007 258.986 851.267 256.442 851.267 253.288C851.267 243.825 853.675 227.003 858.496 202.828C861.65 186.224 863.224 175.716 863.224 171.287C863.224 163.927 858.098 160.25 847.808 160.25C842.949 160.25 838.346 160.686 833.922 161.519C832.871 156.922 831.515 153.768 829.804 152.057C828.354 150.172 825.294 149.208 820.646 149.208C806.145 149.208 792.39 153.849 779.338 163.093C766.504 172.158 756.214 184.252 748.456 199.363C740.661 214.3 736.76 230.158 736.76 246.98V247.813C733.214 251.403 730.016 254.252 727.167 256.442C720.641 261.301 713.107 263.715 704.472 263.715C698.998 263.715 694.574 261.917 691.202 258.371C687.874 254.557 685.423 248.379 683.973 239.751C707.713 207.382 726.551 174.658 740.437 141.674C754.279 108.646 761.247 79.6487 761.247 54.5898C761.247 37.1581 758.31 23.795 752.4 14.5504C746.751 5.08797 738.863 0.359863 728.741 0.359863C710.868 0.359863 695.408 12.1428 682.4 35.665C669.565 59.2308 659.798 87.4003 653.048 120.205C646.522 153.015 643.281 182.23 643.281 207.898C643.281 233.567 647.704 256.349 656.507 273.165C665.577 289.987 679.332 298.391 697.859 298.391C711.309 298.391 723.266 294.802 733.774 287.66C737.588 285.115 741.308 282.316 744.904 279.249C745.999 280.997 747.181 282.621 748.45 284.195C756.207 293.657 766.628 298.385 779.636 298.385C796.284 298.385 810.039 289.539 820.989 271.883C823.925 280.076 828.218 286.602 833.91 291.461C839.776 296.058 846.215 298.379 853.14 298.379C862.166 298.379 871.536 294.702 881.216 287.343C885.726 283.927 890.106 280.114 894.355 275.952C894.703 276.524 895.052 277.047 895.45 277.575C901.142 284.935 909.248 290.802 919.762 295.225C930.276 299.43 942.668 301.533 956.952 301.533C975.261 301.533 991.648 297.856 1006.14 290.497C1015.08 286.03 1023.14 280.555 1030.28 274.073C1031.77 276.306 1033.44 278.409 1035.28 280.425C1046.4 292.382 1062.08 298.385 1082.28 298.385C1095.5 298.385 1106.85 295.847 1116.31 290.808C1125.99 285.769 1133.79 278.72 1139.66 269.693C1143.25 264.218 1145.05 257.692 1145.05 250.115C1145.05 245.735 1144.17 242.227 1142.51 239.732L1142.52 239.775ZM689.324 122.774C693.971 96.8876 699.315 75.2441 705.399 57.7688C711.533 40.3371 716.964 31.615 721.829 31.615C727.696 31.615 730.632 39.5844 730.632 55.5728C730.632 75.9844 726.253 98.586 717.406 123.384C708.56 148.001 696.683 172.574 681.746 197.192C682.182 173.408 684.726 148.61 689.324 122.768V122.774ZM813.417 236.621C811.532 245.648 808.465 252.915 804.26 258.395C800.054 263.827 795.631 266.589 791.027 266.589C786.424 266.589 782.703 265.009 779.991 261.861C777.447 258.707 776.177 253.842 776.177 247.359C776.177 235.576 778.411 224.403 782.791 213.895C787.214 203.382 793.13 194.971 800.49 188.662C808.024 182.18 816.254 178.808 825.063 178.59L813.411 236.628L813.417 236.621ZM1056.75 227.159C1056.75 214.325 1059.38 203.375 1064.63 194.348C1070.07 185.328 1076.72 180.768 1084.48 180.768C1088.29 180.768 1091.22 182.037 1093.33 184.581C1095.65 186.902 1096.79 190.056 1096.79 194.044C1096.79 201.795 1093.2 208.632 1086.06 214.542C1078.92 220.409 1069.15 224.832 1056.76 227.769V227.153L1056.75 227.159Z" fill="white"/>
<path d="M532.056 363.149H385.74V377.781H532.056V363.149Z" fill="white"/>
<path d="M596.799 399.04C596.304 397.473 595.397 395.329 594.737 393.762L593.088 389.969H573.13L570.491 395.412C569.832 396.979 569.419 397.886 569.254 399.04H553.338C555.482 395.329 557.709 391.288 560.1 386.34L581.625 340.817H586.078L608.509 386.34C610.819 391.123 613.54 395.659 615.602 399.04H596.799ZM587.81 377.598L582.862 365.805L578.078 377.598H587.81Z" fill="white"/>
<path d="M620.263 399.04C620.428 396.484 620.593 389.721 620.593 384.113V356.734C620.593 350.961 620.428 344.281 620.263 341.807H641.375C647.065 341.807 653.333 341.642 655.89 341.477V355.579C653.333 355.332 647.065 355.249 641.375 355.249H636.922V365.558H639.891C645.663 365.558 650.941 365.393 653.498 365.228V379H636.922V384.113C636.922 389.721 637.087 396.484 637.252 399.04H620.263Z" fill="white"/>
<path d="M660.612 399.04C660.777 396.484 660.941 389.721 660.941 384.113V356.734C660.941 350.961 660.777 344.281 660.612 341.807H681.724C687.414 341.807 693.681 341.642 696.238 341.477V355.579C693.681 355.332 687.414 355.249 681.724 355.249H677.27V365.558H680.239C686.012 365.558 691.29 365.393 693.846 365.228V379H677.27V384.113C677.27 389.721 677.435 396.484 677.6 399.04H660.612Z" fill="white"/>
<path d="M717.536 356.734V384.113C717.536 389.721 717.701 396.484 717.866 399.04H700.96C701.125 396.484 701.29 389.721 701.29 384.113V356.734C701.29 351.043 701.125 344.281 700.96 341.807H717.866C717.701 344.281 717.536 351.043 717.536 356.734Z" fill="white"/>
<path d="M739.202 356.734V385.268H746.295C752.067 385.268 758.582 385.185 761.221 385.021V399.37C758.582 399.205 752.067 399.04 746.295 399.04H722.544C722.709 394.422 722.873 387.824 722.873 384.113V356.734C722.873 350.961 722.709 344.281 722.544 341.807H739.532C739.367 344.281 739.202 350.961 739.202 356.734Z" fill="white"/>
<path d="M782.448 356.734V384.113C782.448 389.721 782.613 396.484 782.778 399.04H765.872C766.037 396.484 766.202 389.721 766.202 384.113V356.734C766.202 351.043 766.037 344.281 765.872 341.807H782.778C782.613 344.281 782.448 351.043 782.448 356.734Z" fill="white"/>
<path d="M830.916 399.04C830.422 397.473 829.514 395.329 828.855 393.762L827.205 389.969H807.248L804.609 395.412C803.949 396.979 803.537 397.886 803.372 399.04H787.455C789.6 395.329 791.826 391.288 794.218 386.34L815.742 340.817H820.195L842.627 386.34C844.936 391.123 847.658 395.659 849.719 399.04H830.916ZM821.927 377.598L816.979 365.805L812.196 377.598H821.927Z" fill="white"/>
<path d="M883.162 341.807C888.934 341.807 895.862 341.642 898.418 341.477V355.662C895.862 355.497 888.934 355.249 883.162 355.249H881.265C881.182 358.383 881.182 362.424 881.182 365.97V384.113C881.182 389.804 881.347 396.484 881.595 399.04H864.276C864.441 396.484 864.689 389.804 864.689 384.113V365.97C864.689 362.424 864.606 358.301 864.441 355.249H862.544C856.854 355.249 850.009 355.497 847.535 355.662V341.477C850.009 341.642 856.854 341.807 862.544 341.807H883.162Z" fill="white"/>
<path d="M922.526 355.249H918.072V363.001H921.453C927.144 363.001 933.329 362.836 935.885 362.672V376.856C933.329 376.609 927.144 376.444 921.453 376.444H918.072V385.515H923.185C928.958 385.515 935.226 385.35 937.7 385.185V399.37C935.226 399.205 928.958 399.04 923.185 399.04H901.414C901.579 394.422 901.743 387.824 901.743 384.113V356.651C901.743 350.879 901.579 344.281 901.414 341.807H922.526C928.216 341.807 934.484 341.477 937.04 341.312V355.579C934.484 355.332 928.216 355.249 922.526 355.249Z" fill="white"/>
<path d="M960.413 356.404C960.496 362.672 978.144 365.063 978.144 381.557C978.144 393.185 968.66 400.36 956.043 400.36C951.919 400.36 948.95 399.947 945.981 399.453C943.178 399.123 941.198 396.731 941.198 393.927V381.309C944.415 385.185 951.342 387.66 956.125 387.66C959.176 387.66 960.826 386.093 960.826 383.948C960.826 376.856 943.672 375.289 943.672 359.043C943.672 347.662 951.342 340.57 964.784 340.57C967.341 340.57 969.32 340.9 971.382 341.23C974.103 341.725 976.165 344.116 976.165 346.838V357.971C973.526 354.59 968.743 352.94 964.867 352.94C961.98 352.94 960.413 354.26 960.413 356.404Z" fill="white"/>
<path d="M1145.74 363.149H999.426V377.781H1145.74V363.149Z" fill="white"/>
<path d="M116.666 177.527C99.7966 232.23 96.1907 290.895 105.683 347.33C122.39 353.264 140.373 356.505 159.115 356.505C201.324 356.505 239.698 340.115 268.241 313.361C244.932 305.502 222.593 293.371 203.129 279.879C165.117 253.53 135.353 214.954 116.666 177.527Z" fill="white"/>
<path d="M47.7795 311.248C55.7969 226.445 81.0363 143.25 121.924 68.5072C162.826 142.69 233.276 207.628 313.669 236.918C316.972 224.126 318.732 210.712 318.732 196.888C318.732 108.734 247.269 37.271 159.115 37.271C70.961 37.271 -0.501825 108.734 -0.501818 196.888C-0.501302 241.735 18.0012 282.253 47.7795 311.248Z" fill="white"/>
<path d="M300.04 156.428C300.04 156.428 280.857 82.894 203.06 55.1854C203.06 55.1854 217.98 145.771 300.04 156.428Z" fill="white"/>
</g>
<defs>
<clipPath id="clip0_224_746">
<rect width="1740" height="400" fill="white"/>
</clipPath>
</defs>
</svg>