<svg width="400" height="400" viewBox="0 0 400 400" fill="none" xmlns="http://www.w3.org/2000/svg">
<path d="M157.449 180.593C140.539 235.426 136.925 294.233 146.44 350.803C163.187 356.752 181.213 360 200 360C242.31 360 280.777 343.57 309.389 316.752C286.023 308.875 263.63 296.715 244.12 283.19C206.016 256.778 176.181 218.109 157.449 180.593Z" fill="url(#paint0_linear_224_791)"/>
<path d="M88.3974 314.635C96.434 229.628 121.734 146.233 162.72 71.3111C203.72 145.672 274.339 210.766 354.925 240.126C358.237 227.303 360 213.857 360 200C360 111.634 288.366 39.9998 200 39.9998C111.635 39.9999 40.0001 111.634 40.0001 200C40.0006 244.954 58.5475 285.57 88.3974 314.635Z" fill="url(#paint1_linear_224_791)"/>
<path d="M341.263 159.443C341.263 159.443 322.034 85.7324 244.051 57.9572C244.051 57.9572 259.006 148.76 341.263 159.443Z" fill="url(#paint2_linear_224_791)"/>
<defs>
<linearGradient id="paint0_linear_224_791" x1="309.388" y1="270.296" x2="141.276" y2="270.296" gradientUnits="userSpaceOnUse">
<stop stop-color="#FC880E"/>
<stop offset="0.3343" stop-color="#ED770B"/>
<stop offset="1" stop-color="#D25B08"/>
</linearGradient>
<linearGradient id="paint1_linear_224_791" x1="428.623" y1="177.294" x2="40.0005" y2="177.318" gradientUnits="userSpaceOnUse">
<stop stop-color="#D76008"/>
<stop offset="0.477" stop-color="#EA740B"/>
<stop offset="1" stop-color="#FF8B0F"/>
</linearGradient>
<linearGradient id="paint2_linear_224_791" x1="307.426" y1="98.3584" x2="273.455" y2="122.145" gradientUnits="userSpaceOnUse">
<stop stop-color="#FD890F" stop-opacity="0.25"/>
<stop offset="0.5497" stop-color="#FD890F" stop-opacity="0.5"/>
<stop offset="1" stop-color="#FC880E"/>
</linearGradient>
</defs>
</svg>
