<svg width="68" height="15" viewBox="0 0 68 15" fill="none" xmlns="http://www.w3.org/2000/svg">
<path d="M13.8361 8.72413C12.9001 12.4841 9.08413 14.7801 5.32413 13.8361C1.56413 12.9001 -0.73187 9.08413 0.21213 5.32413C1.14813 1.56413 4.96413 -0.73187 8.72413 0.21213C12.4841 1.14813 14.7801 4.96413 13.8361 8.72413Z" fill="#F79430"/>
<path d="M10.1242 6.02813C10.2602 5.09213 9.55622 4.58813 8.58022 4.25213L8.89222 2.98813L8.12422 2.79613L7.82022 4.02813C7.61222 3.98013 7.41222 3.93214 7.20422 3.88414L7.51622 2.64414L6.74822 2.45213L6.43622 3.71613C6.26822 3.67613 6.10022 3.64414 5.94022 3.60414L4.87622 3.34013L4.66822 4.16414C4.66822 4.16414 5.23622 4.29213 5.22822 4.30013C5.54022 4.38013 5.59622 4.58813 5.58822 4.74813L5.22822 6.18813C5.25222 6.19613 5.27622 6.20413 5.30822 6.21213L5.22822 6.18813L4.72422 8.21213C4.68422 8.30813 4.58822 8.45213 4.37222 8.39613C4.38022 8.40413 3.81222 8.26014 3.81222 8.26014L3.42822 9.14014L4.42822 9.38813C4.61222 9.43613 4.79622 9.48413 4.98022 9.53213L4.66022 10.8121L5.42822 11.0041L5.74022 9.74014C5.94822 9.79614 6.15622 9.85214 6.35622 9.90014L6.04422 11.1641L6.81222 11.3561L7.13222 10.0761C8.44422 10.3241 9.43622 10.2281 9.85222 9.03613C10.1882 8.07613 9.83622 7.52414 9.14022 7.16414C9.64422 7.04414 10.0202 6.70813 10.1242 6.02813ZM8.36422 8.50014C8.12422 9.46014 6.51622 8.94013 5.98822 8.81213L6.41222 7.11614C6.93222 7.24413 8.61222 7.50014 8.36422 8.50014ZM8.60422 6.01213C8.38822 6.88413 7.04422 6.44413 6.61222 6.33213L6.99622 4.79613C7.42822 4.90013 8.82822 5.10813 8.60422 6.01213Z" fill="white"/>
<path d="M20.5881 4.25213C21.1561 4.25213 21.6521 4.35613 22.0601 4.55614C22.4761 4.75613 22.8201 5.02813 23.0921 5.37213C23.3641 5.71613 23.5641 6.11613 23.6921 6.58013C23.8201 7.04413 23.8841 7.54013 23.8841 8.07613C23.8841 8.89213 23.7321 9.66813 23.4281 10.3961C23.1241 11.1241 22.7161 11.7561 22.1961 12.3001C21.6761 12.8361 21.0601 13.2681 20.3481 13.5801C19.6361 13.8921 18.8681 14.0521 18.0361 14.0521C17.9321 14.0521 17.7401 14.0521 17.4761 14.0441C17.2121 14.0361 16.9081 14.0121 16.5641 13.9641C16.1961 13.9081 15.8281 13.8361 15.4681 13.7481C15.0921 13.6601 14.7241 13.5241 14.3721 13.3561L17.4441 0.428134L20.1961 0.00413513L19.0921 4.58813C19.3241 4.48413 19.5561 4.40413 19.8041 4.34013C20.0761 4.28413 20.3321 4.25213 20.5881 4.25213ZM18.2761 11.8681C18.6921 11.8681 19.0841 11.7641 19.4521 11.5641C19.8201 11.3641 20.1481 11.0841 20.4041 10.7561C20.6761 10.4121 20.8841 10.0201 21.0361 9.61213C21.1881 9.18813 21.2681 8.73213 21.2681 8.27613C21.2681 7.70813 21.1721 7.26813 20.9801 6.94013C20.7881 6.62013 20.4361 6.46013 19.9321 6.46013C19.7641 6.46013 19.5481 6.49213 19.2841 6.54813C19.0201 6.61213 18.7801 6.73214 18.5641 6.92414L17.3881 11.7961C17.4601 11.8121 17.5241 11.8201 17.5721 11.8281C17.6281 11.8441 17.6841 11.8521 17.7401 11.8521C17.8041 11.8601 17.8681 11.8601 17.9561 11.8601L18.2761 11.8681ZM26.7481 13.8041H24.1241L26.3481 4.45213H28.9961L26.7481 13.8041ZM28.0361 3.31613C27.6761 3.31613 27.3241 3.20413 27.0441 2.98813C26.7481 2.77213 26.5961 2.43613 26.5961 1.98013C26.5961 1.73213 26.6441 1.50013 26.7481 1.27613C26.8441 1.06013 26.9801 0.868134 27.1481 0.708134C27.3161 0.548134 27.5081 0.420135 27.7241 0.324135C27.9481 0.228135 28.1881 0.180134 28.4281 0.180134C28.7961 0.180134 29.1241 0.292134 29.4201 0.508134C29.7161 0.732134 29.8681 1.06013 29.8681 1.51613C29.8681 1.75613 29.8201 1.99613 29.7161 2.22013C29.6201 2.43613 29.4841 2.62813 29.3161 2.78813C29.1481 2.94813 28.9561 3.07613 28.7401 3.17213C28.5161 3.26813 28.2841 3.31613 28.0361 3.31613ZM31.3001 2.12414L34.0601 1.70013L33.3801 4.46013H36.3321L35.7961 6.62813H32.8601L32.0761 9.90014C32.0041 10.1721 31.9641 10.4281 31.9481 10.6601C31.9321 10.9001 31.9641 11.1001 32.0361 11.2761C32.1081 11.4521 32.2361 11.5801 32.4201 11.6761C32.6041 11.7721 32.8681 11.8201 33.2121 11.8201C33.4921 11.8201 33.7721 11.7961 34.0361 11.7401C34.3081 11.6841 34.5801 11.6121 34.8441 11.5161L35.0441 13.5401C34.6681 13.6761 34.2841 13.7881 33.8921 13.8761C33.4761 13.9721 32.9881 14.0201 32.4121 14.0201C31.5961 14.0201 30.9641 13.9001 30.5081 13.6601C30.0601 13.4201 29.7401 13.0841 29.5481 12.6601C29.3561 12.2441 29.2761 11.7561 29.3001 11.2121C29.3241 10.6681 29.4041 10.0921 29.5481 9.48414L31.3001 2.12414ZM36.2121 10.0681C36.2121 9.26013 36.3401 8.50013 36.6041 7.78813C36.8681 7.07613 37.2361 6.45214 37.7241 5.92414C38.2121 5.39614 38.7961 4.97213 39.4921 4.66013C40.1801 4.35613 40.9561 4.19614 41.8121 4.19614C42.3481 4.19614 42.8201 4.24413 43.2441 4.34813C43.6681 4.45213 44.0441 4.58013 44.3881 4.74813L43.4841 6.81213C43.2441 6.71613 42.9961 6.62814 42.7481 6.55614C42.4921 6.47614 42.1801 6.43614 41.8121 6.43614C40.9321 6.43614 40.2361 6.74013 39.7241 7.34013C39.2121 7.94013 38.9481 8.75614 38.9481 9.78014C38.9481 10.3881 39.0761 10.8761 39.3401 11.2441C39.6041 11.6201 40.0841 11.8041 40.7801 11.8041C41.1241 11.8041 41.4601 11.7641 41.7721 11.7001C42.0921 11.6281 42.3801 11.5401 42.6281 11.4361L42.8281 13.5481C42.4681 13.6841 42.1001 13.8041 41.7241 13.8921C41.3241 13.9881 40.8441 14.0441 40.2841 14.0441C39.5481 14.0441 38.9241 13.9401 38.4201 13.7241C37.9081 13.5081 37.4921 13.2201 37.1561 12.8601C36.8201 12.5001 36.5801 12.0761 36.4361 11.5881C36.2921 11.1081 36.2121 10.6041 36.2121 10.0681ZM47.9001 14.0521C47.2681 14.0521 46.7241 13.9561 46.2601 13.7641C45.7961 13.5721 45.4201 13.3081 45.1161 12.9641C44.8121 12.6201 44.5881 12.2121 44.4281 11.7481C44.2761 11.2761 44.1961 10.7641 44.1961 10.1961C44.1961 9.48413 44.3081 8.77214 44.5401 8.06014C44.7721 7.34814 45.1081 6.70813 45.5641 6.14013C46.0121 5.57213 46.5641 5.10813 47.2201 4.74013C47.8681 4.38013 48.6201 4.19614 49.4601 4.19614C50.0761 4.19614 50.6201 4.29214 51.0921 4.48414C51.5561 4.67614 51.9401 4.94014 52.2441 5.28414C52.5481 5.62814 52.7721 6.03613 52.9241 6.50013C53.0761 6.96413 53.1561 7.48413 53.1561 8.05213C53.1561 8.76413 53.0441 9.47614 52.8201 10.1881C52.5961 10.9001 52.2601 11.5401 51.8281 12.1081C51.3881 12.6761 50.8441 13.1401 50.1801 13.5001C49.5321 13.8681 48.7641 14.0521 47.9001 14.0521ZM49.2201 6.44414C48.8281 6.44414 48.4841 6.55613 48.1881 6.78013C47.8921 7.00413 47.6441 7.29214 47.4441 7.63614C47.2441 7.98014 47.0921 8.35614 46.9881 8.76414C46.8841 9.17214 46.8361 9.56413 46.8361 9.93213C46.8361 10.5241 46.9321 10.9881 47.1161 11.3241C47.3081 11.6521 47.6521 11.8201 48.1481 11.8201C48.5401 11.8201 48.8841 11.7081 49.1801 11.4841C49.4761 11.2601 49.7241 10.9721 49.9241 10.6281C50.1241 10.2841 50.2761 9.90814 50.3801 9.50014C50.4761 9.09214 50.5321 8.70013 50.5321 8.33213C50.5321 7.74013 50.4361 7.27613 50.2441 6.94813C50.0601 6.61213 49.7161 6.44414 49.2201 6.44414ZM56.0281 13.8041H53.3961L55.6201 4.45213H58.2681L56.0281 13.8041ZM57.3081 3.31613C56.9481 3.31613 56.5961 3.20413 56.3161 2.98813C56.0201 2.77213 55.8681 2.43613 55.8681 1.98013C55.8681 1.73213 55.9161 1.50013 56.0201 1.27613C56.1161 1.06013 56.2521 0.868134 56.4201 0.708134C56.5881 0.548134 56.7881 0.420135 56.9961 0.324135C57.2201 0.228135 57.4601 0.180134 57.7001 0.180134C58.0681 0.180134 58.4041 0.292134 58.7001 0.508134C58.9961 0.732134 59.1481 1.06013 59.1481 1.51613C59.1481 1.76413 59.0921 1.99613 58.9961 2.22013C58.9001 2.43613 58.7641 2.62813 58.5961 2.78813C58.4281 2.94813 58.2361 3.07613 58.0201 3.17213C57.7961 3.26813 57.5561 3.31613 57.3081 3.31613ZM60.1641 4.87613C60.3641 4.82014 60.5881 4.74813 60.8281 4.66813C61.1001 4.58813 61.3721 4.51613 61.6441 4.46013C61.9481 4.39613 62.2841 4.34013 62.6601 4.30013C63.0361 4.26013 63.4601 4.23614 63.9321 4.23614C65.3161 4.23614 66.2761 4.64414 66.8041 5.44414C67.3321 6.25214 67.4201 7.35613 67.0841 8.74813L65.8761 13.7961H63.2281L64.4041 8.85213C64.4761 8.54013 64.5321 8.24413 64.5721 7.95614C64.6121 7.66814 64.6121 7.41214 64.5641 7.19614C64.5241 6.98814 64.4041 6.79613 64.2361 6.66013C64.0601 6.52413 63.8041 6.45213 63.4441 6.45213C63.0921 6.45213 62.7401 6.49214 62.3961 6.56414L60.6681 13.7961H58.0201L60.1641 4.87613Z" fill="#46494A"/>
</svg>
