<?xml version="1.0" encoding="utf-8"?>
<!-- Generator: Adobe Illustrator 26.2.1, SVG Export Plug-In . SVG Version: 6.00 Build 0)  -->
<svg version="1.1" id="Layer_1" xmlns="http://www.w3.org/2000/svg" xmlns:xlink="http://www.w3.org/1999/xlink" x="0px" y="0px"
	 width="566px" height="150px" viewBox="0 0 566 150" style="enable-background:new 0 0 566 150;" xml:space="preserve">
<style type="text/css">
	.st0{fill:#97A3FC;}
	.st1{fill:#BA1F3B;}
	.st2{fill:#FFFFFF;}
</style>
<path class="st0" d="M77.3,74.9h-0.2l0.1,0L77.3,74.9z"/>
<path class="st0" d="M77.3,74.9h-0.2H77.3L77.3,74.9z"/>
<path class="st1" d="M68,123.3h18.3v26.5H68V123.3z"/>
<path class="st1" d="M68,123.3l9.1-8.5l9.1,8.5H68z"/>
<path class="st1" d="M76,105.1l-14,11.6l-0.1,0H19l14-11.6l0.1,0H76z"/>
<path class="st1" d="M34.5,105.1L34.5,105.1h-0.1H34.5z"/>
<path class="st1" d="M135.7,116.8h-43l-0.1,0l-14-11.6h43l0.1,0L135.7,116.8z"/>
<path class="st1" d="M120.3,105.1L120.3,105.1h-0.2H120.3z"/>
<path class="st1" d="M56.7,61.3L42.6,36.6H0l6.9,11.7h28.8l7.3,12.6L56.7,61.3z"/>
<path class="st1" d="M97.7,61.3l14.1-24.6h42.6l-6.9,11.7h-28.8l-7.3,12.6L97.7,61.3z"/>
<path class="st1" d="M119.9,72.4h14l-14,24.6l-7.2-12.3L119.9,72.4z"/>
<path class="st1" d="M34.5,72.4H20.4L34.5,97l7.2-12.3L34.5,72.4z"/>
<path class="st1" d="M41.7,84.7h15.1l-7.1-12.3h13.3L77.3,97H34.5L41.7,84.7z"/>
<path class="st1" d="M112.8,84.7H97.7l7.1-12.3H91.5L77.2,97H120L112.8,84.7z"/>
<path class="st1" d="M6.9,48.3l13.6,24h14.1l-14.1-24H6.9z"/>
<path class="st1" d="M97.7,60.8l-6.2,11.6H134l-4.2-5.4l11-6.2H97.7z"/>
<path class="st1" d="M134,48.3l-7.2,12.4h13.9l6.9-12.4H134z"/>
<path class="st1" d="M54.4,36.6V0l23.1,7.7c0.1,4.4,0.1,8.7,0.1,13.1L68,17.8l0.1,18.9L54.4,36.6z"/>
<path class="st1" d="M100.5,36.6V0L77.4,7.7c0,4.4-0.1,8.7-0.1,13.1l9.6-3.1l-0.1,18.9L100.5,36.6z"/>
<path class="st1" d="M54.4,36.6l22.9,40.5l23.2-40.5H86.8L77.6,52l-9.5-15.4H54.4z"/>
<path class="st2" d="M251.4,63.8c-4.4,0-8.8-0.8-12.9-2.4c-3.9-1.5-7.5-3.8-10.5-6.8c-3-2.9-5.3-6.3-7-10.1
	c-2.6-5.9-3.3-12.4-2-18.7c1.3-6.3,4.4-12.1,9-16.5c3-2.9,6.6-5.2,10.5-6.8C242.7,0.8,247,0,251.4,0c3.4,0,6.7,0.5,9.9,1.4
	c3.1,0.9,6.1,2.3,8.9,4c2.7,1.6,5,3.7,7,6.1l-8.7,8.6c-2.1-2.6-4.7-4.8-7.7-6.3c-2.9-1.4-6.2-2.1-9.4-2.1c-2.7,0-5.3,0.5-7.8,1.6
	c-2.4,1-4.5,2.4-6.3,4.2c-1.8,1.8-3.2,4-4.1,6.4c-1,2.5-1.5,5.3-1.5,8c0,2.7,0.5,5.4,1.5,7.9c1,2.4,2.4,4.6,4.2,6.4
	c1.8,1.8,4,3.2,6.4,4.2c2.5,1,5.3,1.5,8,1.5c3.2,0,6.3-0.7,9.1-2c2.9-1.4,5.4-3.4,7.5-5.8l8.4,8.3c-2,2.4-4.3,4.5-7,6.1
	c-2.7,1.7-5.7,3-8.8,3.9C258,63.3,254.7,63.8,251.4,63.8z"/>
<path class="st2" d="M278.5,62.9L304,1h14.8l25.2,61.9H330l-6.3-16.3h-25.6l-6.4,16.3L278.5,62.9z M302.2,36.4h17.7L311,13.6
	L302.2,36.4z"/>
<path class="st2" d="M372.6,63.8c-10.1,0-19.9-3.9-27.4-10.7l7.3-9.2c3.1,2.8,6.6,5.2,10.4,6.9c3.3,1.4,6.9,2.1,10.6,2.1
	c2.3,0,4.5-0.3,6.7-0.9c1.7-0.5,3.2-1.4,4.4-2.7c1-1.1,1.6-2.6,1.5-4.1c0-0.9-0.1-1.9-0.5-2.7c-0.4-0.9-1-1.6-1.8-2.2
	c-1.5-1.1-4.2-2-7.9-2.7l-12.3-2.1c-5.2-0.9-9.2-2.8-12-5.6c-1.4-1.5-2.4-3.2-3.2-5.1c-0.7-1.9-1-3.9-0.9-5.9c-0.1-3.6,1-7.1,3-10
	c2.1-2.9,5-5.2,8.4-6.5c4.1-1.6,8.5-2.4,12.9-2.3c4.6,0,9.2,0.8,13.6,2.3c4.3,1.4,8.4,3.6,12.1,6.4l-6.9,9.6
	c-6.5-4.9-13-7.4-19.5-7.4c-2,0-4.1,0.3-6,0.9c-1.5,0.5-2.9,1.3-3.9,2.4c-0.9,1-1.4,2.3-1.4,3.7c0,0.8,0.1,1.7,0.5,2.4
	c0.4,0.8,0.9,1.4,1.6,1.9c1.4,1,3.6,1.8,6.8,2.3l11.7,1.9c6.2,1,10.8,3,13.9,5.9c1.5,1.5,2.7,3.3,3.5,5.3c0.8,2,1.2,4.1,1.1,6.3
	c0.1,3.7-1,7.4-3.2,10.5c-2.3,3.1-5.4,5.5-9.1,6.9C382,63.1,377.3,63.9,372.6,63.8L372.6,63.8z"/>
<path class="st2" d="M406.3,62.9V1h12.8v61.9L406.3,62.9z"/>
<path class="st2" d="M430.3,62.9V1h12.2l30.7,40V1h12v61.9H474l-31.6-41.4v41.4H430.3z"/>
<path class="st2" d="M526.9,63.9c-4.4,0-8.7-0.8-12.8-2.4c-7.8-3.2-14-9.3-17.4-17c-1.7-4-2.5-8.2-2.5-12.5s0.9-8.6,2.5-12.5
	c1.6-3.8,4-7.3,7-10.2c3-2.9,6.5-5.2,10.4-6.8c8.3-3.2,17.4-3.2,25.7,0c3.9,1.6,7.4,3.9,10.4,6.8c3,3,5.4,6.5,7,10.4
	c1.6,3.9,2.5,8.1,2.5,12.3c0,4.2-0.8,8.4-2.5,12.3s-4,7.4-7,10.4c-3,2.9-6.5,5.3-10.4,6.8C535.6,63.1,531.3,63.9,526.9,63.9
	L526.9,63.9z M526.9,52.1c2.7,0,5.3-0.5,7.8-1.5c2.3-1,4.5-2.5,6.3-4.3c1.8-1.8,3.2-4,4.1-6.4c2-5.1,2-10.8,0-16
	c-0.9-2.4-2.4-4.5-4.1-6.3c-1.8-1.8-3.9-3.3-6.2-4.3c-2.5-1.1-5.1-1.6-7.8-1.5c-2.6,0-5.3,0.5-7.7,1.5c-4.7,2-8.4,5.8-10.4,10.6
	c-1,2.5-1.5,5.2-1.5,7.9c0,2.8,0.5,5.5,1.5,8.1c0.9,2.4,2.3,4.5,4.1,6.4c1.8,1.8,3.9,3.3,6.2,4.3C521.6,51.6,524.2,52.1,526.9,52.1
	L526.9,52.1z"/>
<path class="st2" d="M223.5,146.9v-45.5H246c2.8-0.1,5.6,0.5,8.2,1.6c2.2,1,4.1,2.5,5.6,4.5c1.4,1.9,2.1,4.3,2,6.7
	c0,1.8-0.5,3.6-1.4,5.2c-1,1.6-2.2,3-3.8,4.1c1.9,1,3.6,2.4,4.8,4.2c1.2,1.7,1.8,3.7,1.8,5.7c0,2.5-0.7,4.9-2,7
	c-1.4,2.1-3.4,3.7-5.6,4.7c-2.7,1.2-5.5,1.8-8.5,1.7L223.5,146.9z M234.6,119.6h10.7c1.4,0.1,2.8-0.4,3.9-1.2
	c0.5-0.4,0.8-0.9,1.1-1.5c0.2-0.6,0.4-1.2,0.3-1.8c0-0.6-0.1-1.2-0.3-1.8c-0.2-0.6-0.6-1.1-1.1-1.5c-1.1-0.9-2.5-1.3-3.9-1.2h-10.7
	V119.6z M234.6,137.8h11.6c1.5,0.1,2.9-0.4,4.1-1.3c0.5-0.4,0.9-1,1.1-1.6s0.4-1.3,0.4-1.9c0-0.7-0.1-1.3-0.4-1.9
	c-0.3-0.6-0.6-1.1-1.1-1.6c-1.2-0.9-2.6-1.4-4.1-1.3h-11.6V137.8z"/>
<path class="st2" d="M291.3,147.7c-3.3,0-6.5-0.6-9.6-1.8c-2.9-1.2-5.5-2.9-7.7-5c-2.2-2.1-3.9-4.7-5.1-7.5c-1.2-2.9-1.9-6-1.9-9.2
	s0.6-6.3,1.9-9.2c1.2-2.8,2.9-5.3,5.1-7.5c2.2-2.2,4.9-3.9,7.7-5c6.1-2.4,13-2.4,19.1,0c2.9,1.1,5.5,2.8,7.7,5
	c2.2,2.1,3.9,4.7,5.1,7.5c1.2,2.9,1.8,6,1.8,9.2s-0.6,6.3-1.8,9.2c-1.2,2.8-2.9,5.3-5.1,7.5c-2.2,2.2-4.9,3.9-7.7,5
	C297.8,147.1,294.5,147.7,291.3,147.7z M291.3,137.4c2.5,0,5-0.7,7.2-2.1c2.1-1.4,3.7-3.5,4.7-5.8c0.7-1.7,1-3.4,1-5.2
	c0-1.8-0.3-3.6-1-5.3c-0.9-2.4-2.6-4.4-4.7-5.8c-2.1-1.4-4.6-2.2-7.1-2.2c-2.5,0-5,0.8-7.1,2.2c-2.1,1.4-3.7,3.5-4.7,5.8
	c-0.7,1.6-1,3.4-1,5.2c0,1.8,0.3,3.6,1,5.3c0.9,2.4,2.6,4.4,4.7,5.8C286.2,136.7,288.7,137.4,291.3,137.4L291.3,137.4z"/>
<path class="st2" d="M321.5,146.9v-45.5H332l20.7,26.4v-26.4h10.5v45.5h-9.9L332,119.5v27.4H321.5z"/>
<path class="st2" d="M390.7,147.6c-3.8,0.1-7.6-0.8-11-2.5c-3-1.6-5.5-4.1-7.2-7.2c-1.8-3.3-2.6-7.1-2.5-10.8v-25.6h11.2v25.7
	c0,1.9,0.4,3.7,1.2,5.4c0.7,1.5,1.9,2.7,3.4,3.5c1.5,0.8,3.3,1.3,5,1.2c1.8,0,3.5-0.4,5-1.2c1.4-0.8,2.6-2.1,3.3-3.5
	c0.8-1.7,1.2-3.5,1.2-5.4v-25.7h11.2v25.7c0.1,3.8-0.8,7.5-2.6,10.8c-1.6,3-4.1,5.5-7.2,7.2C398.3,146.8,394.6,147.7,390.7,147.6
	L390.7,147.6z"/>
<path class="st2" d="M435.1,147.6c-3.7,0-7.4-0.7-10.9-2c-3.5-1.3-6.8-3.2-9.6-5.6l6.2-8.1c2.3,2,4.9,3.6,7.7,4.8
	c2.4,1,4.9,1.5,7.5,1.5c1.5,0,3-0.1,4.4-0.5c1-0.3,2-0.8,2.8-1.5c0.3-0.3,0.6-0.7,0.8-1.1c0.2-0.4,0.3-0.8,0.3-1.3
	c0-0.6-0.1-1.1-0.3-1.6c-0.3-0.5-0.6-0.9-1.1-1.3c-1.5-0.9-3.1-1.4-4.9-1.6l-10-1.8c-3.2-0.4-6.2-1.9-8.5-4.2c-2-2.3-3.1-5.2-3-8.2
	c-0.1-2.7,0.7-5.4,2.2-7.6c1.6-2.2,3.9-3.9,6.4-4.9c3.2-1.2,6.6-1.8,10-1.7c3.5,0,6.9,0.6,10.2,1.7c3.2,1,6.2,2.7,8.9,4.8l-5.9,8.2
	c-4.7-3.6-9.3-5.4-14-5.4c-1.4,0-2.7,0.2-4,0.6c-0.9,0.2-1.8,0.7-2.5,1.4c-0.3,0.3-0.5,0.6-0.7,1c-0.2,0.4-0.2,0.8-0.2,1.1
	c0,0.5,0.1,1,0.3,1.5c0.2,0.5,0.6,0.8,1,1.1c1.3,0.8,2.6,1.2,4.1,1.4l9.4,1.6c4.4,0.7,7.7,2.1,10,4.4c1.1,1.1,2,2.4,2.6,3.9
	c0.6,1.5,0.9,3.1,0.8,4.6c0.1,2.8-0.8,5.6-2.4,8c-1.8,2.3-4.1,4.1-6.9,5.1C442.3,147.1,438.7,147.7,435.1,147.6L435.1,147.6z"/>
<path class="st2" d="M495.7,147.6c-3.3,0-6.6-0.6-9.6-1.8c-2.9-1.1-5.5-2.8-7.8-5c-2.2-2.1-4-4.7-5.2-7.6c-1.2-2.9-1.8-5.9-1.8-9
	c0-3.2,0.6-6.3,1.9-9.2c1.2-2.8,3-5.3,5.2-7.4c2.3-2.1,4.9-3.8,7.8-5c5.4-2.1,11.4-2.4,17-0.7c2.4,0.7,4.6,1.7,6.7,3.1
	c2,1.3,3.7,2.8,5.1,4.7l-7.5,7.4c-1.4-1.9-3.3-3.4-5.4-4.6c-2-1-4.2-1.5-6.4-1.5c-1.7,0-3.4,0.3-5,1c-1.6,0.6-3,1.6-4.2,2.8
	c-1.2,1.2-2.1,2.6-2.7,4.2c-0.7,1.7-1,3.5-1,5.3c0,1.7,0.3,3.4,1,5c0.7,1.6,1.6,3.1,2.8,4.3c1.2,1.2,2.7,2.1,4.3,2.8
	c1.7,0.7,3.5,1,5.3,1c2.1,0,4.2-0.5,6.1-1.4c2-1,3.7-2.5,5.1-4.2l7.3,7.2c-1.4,1.8-3.2,3.4-5.1,4.6c-2,1.3-4.3,2.4-6.6,3.1
	C500.5,147.3,498.1,147.6,495.7,147.6L495.7,147.6z"/>
<path class="st2" d="M515.2,146.9l18.6-45.5h12.8l18.4,45.5h-12.1l-4.2-11H531l-4.2,11H515.2z M534.4,127.1h11l-5.5-14.6
	L534.4,127.1z"/>
</svg>
